# xmcd
#
# Track frame offsets:
#	150
#	16570
#	30842
#	48906
#	61053
#	74181
#	90298
#	106479
#	115919
#	134425
#	145654
#	158675
#	178170
#	195392
#	209554
#	225297
#
# Disc length: 3240 seconds
#
# Revision: 1
# Processed by: cddbd v1.5.1PL2 Copyright (c) Steve Scherf et al.
# Submitted via: audiograbber 1.83.01
#
DISCID=ca0ca610
DTITLE=Onbekend - De beste Hollandse country hits
DYEAR=1900
DGENRE=
TTITLE0=Koel helder water
TTITLE1=Ver in de bergen
TTITLE2=Rawhide
TTITLE3=Rosemary
TTITLE4=Blonde Bill
TTITLE5='s Avonds als het kampvuur brandt
TTITLE6=Er hangt een paardenhoofdstel aan de muur
TTITLE7=Wij zijn twee eenzame cowboys
TTITLE8=Monikana Schalalie
TTITLE9=Eenzaam zijn de lange nachten
TTITLE10=Hilly Billy Country Lilly
TTITLE11=De lafaard van de stad
TTITLE12=Marie Ann
TTITLE13=De vluchteling
TTITLE14=Bonanza
TTITLE15=Een karavaan
EXTD=
EXTT0=
EXTT1=
EXTT2=
EXTT3=
EXTT4=
EXTT5=
EXTT6=
EXTT7=
EXTT8=
EXTT9=
EXTT10=
EXTT11=
EXTT12=
EXTT13=
EXTT14=
EXTT15=
PLAYORDER=
